<svg xmlns="http://www.w3.org/2000/svg" xmlns:xlink="http://www.w3.org/1999/xlink" xmlns:lucid="lucid" width="1760" height="1360"><g transform="translate(0 0)" lucid:page-tab-id="0_0"><path d="M0 0h1760v1360H0z" fill="#fff"/><path d="M440 668.13c19.92 17.1 32.52 17.1 39.96 17.1 12 0 27.96-17.1 39.96-17.1 7.56 0 20.04 0 40.08 17.1v85.9c-20.04-17.2-32.52-17.2-40.08-17.2-12 0-27.96 17.2-39.96 17.2-7.44 0-20.04 0-39.96-17.2z" stroke="#000" stroke-width="2" fill="#fff"/><use xlink:href="#a" transform="matrix(1,0,0,1,445,673.124707563099) translate(6.8447265625 53.0478515625)"/><path d="M940 388a8 8 0 0 1 8-8h144a8 8 0 0 1 8 8v112c-26.72-20.04-43.36-20.04-53.44-20.04-16 0-37.28 20.04-53.28 20.04-9.92 0-26.72 0-53.28-20.04z" stroke="#ff80df" stroke-width="2" fill="#fff"/><use xlink:href="#b" transform="matrix(1,0,0,1,945,385) translate(56.771484375 51.5478515625)"/><path d="M80 368a8 8 0 0 1 8-8h144a8 8 0 0 1 8 8v104a8 8 0 0 1-8 8H88a8 8 0 0 1-8-8z" stroke="#000" stroke-width="2" fill="#fff"/><use xlink:href="#c" transform="matrix(1,0,0,1,92,372) translate(53.251953125 54.5478515625)"/><path d="M940 668a8 8 0 0 1 8-8h144a8 8 0 0 1 8 8v104a8 8 0 0 1-8 8H948a8 8 0 0 1-8-8z" stroke="#000" stroke-width="2" fill="#fff"/><use xlink:href="#c" transform="matrix(1,0,0,1,952,672) translate(53.251953125 54.5478515625)"/><path d="M1082.25 879c9.8 0 17.75 7.95 17.75 17.75s-7.95 17.75-17.75 17.75h-124.5c-9.8 0-17.75-7.95-17.75-17.75S947.95 879 957.75 879z" stroke="#000" stroke-width="2" fill="#fff"/><use xlink:href="#d" transform="matrix(1,0,0,1,945,883.9994151261981) translate(10.72119140625 19.5478515625)"/><use xlink:href="#e" transform="matrix(1,0,0,1,945,883.9994151261981) translate(96.64306640625 19.5478515625)"/><path d="M1600 148c0 6.63-26.86 12-60 12s-60-5.37-60-12V52c0-6.63 26.86-12 60-12s60 5.37 60 12z" stroke="#000" stroke-width="2" fill="#fff"/><path d="M1600 52c0 6.63-26.86 12-60 12s-60-5.37-60-12" stroke="#000" stroke-width="2" fill="none"/><use xlink:href="#f" transform="matrix(1,0,0,1,1485,69) translate(28.35595703125 36.4802734375)"/><use xlink:href="#g" transform="matrix(1,0,0,1,1485,69) translate(23.2099609375 62.6154296875)"/><path d="M960 967.12c19.92 17.1 32.52 17.1 39.96 17.1 12 0 27.96-17.1 39.96-17.1 7.56 0 20.04 0 40.08 17.1v85.9c-20.04-17.2-32.52-17.2-40.08-17.2-12 0-27.96 17.2-39.96 17.2-7.44 0-20.04 0-39.96-17.2z" stroke="#000" stroke-width="2" fill="#fff"/><use xlink:href="#a" transform="matrix(1,0,0,1,965,972.1241226892971) translate(6.8447265625 53.0478515625)"/><path d="M1409.82 1019.1h-312.44v-.95h312.44zm130.65-12.46l-.15 1.94-.45 1.9-.75 1.8-1.03 1.68-1.28 1.5-1.5 1.26-1.66 1.02-1.8.75-1.9.45-1.94.15h-31.04v-.95h31l1.82-.14 1.76-.42 1.67-.7 1.54-.93 1.38-1.18 1.17-1.37.95-1.54.7-1.68.4-1.75.16-1.82V161.5h.94z" stroke="#333" stroke-width=".05" fill="#333"/><path d="M1540 161l.47-.02v.53h-.94V161z" fill="#333"/><path stroke="#333" stroke-width=".05" fill="#333"/><path d="M1096.88 1023.26l-14.26-4.64 14.26-4.63z" fill="#333"/><path d="M1097.36 1023.9l-16.28-5.28 16.28-5.28zm-13.2-5.28l12.25 4v-7.98z" stroke="#333" stroke-width=".05" fill="#333"/><use xlink:href="#h" transform="matrix(1,0,0,1,1409.8235167912248,1007.7344742517971) translate(0.005000000000002558 17.4375)"/><use xlink:href="#i" transform="matrix(1,0,0,1,1409.8235167912248,1007.7344742517971) translate(46.3673046875 17.4375)"/><path d="M1060 1142.62c0 22.1-17.9 40-40 40s-40-17.9-40-40 17.9-40 40-40 40 17.9 40 40z" stroke="#000" stroke-width="2" fill="#fff"/><use xlink:href="#j" transform="matrix(1,0,0,1,985,1107.624122689297) translate(19.72900390625 41.5478515625)"/><path d="M980 1142.62c0 22.1-17.9 40-40 40s-40-17.9-40-40 17.9-40 40-40 40 17.9 40 40z" stroke="#000" stroke-width="2" fill="#fff"/><use xlink:href="#j" transform="matrix(1,0,0,1,905,1107.624122689297) translate(19.72900390625 41.5478515625)"/><path d="M1140 1142.62c0 22.1-17.9 40-40 40s-40-17.9-40-40 17.9-40 40-40 40 17.9 40 40z" stroke="#000" stroke-width="2" fill="#fff"/><use xlink:href="#j" transform="matrix(1,0,0,1,1065,1107.624122689297) translate(19.72900390625 41.5478515625)"/><path d="M1160 668a8 8 0 0 1 8-8h144a8 8 0 0 1 8 8v104a8 8 0 0 1-8 8h-144a8 8 0 0 1-8-8z" stroke="#000" stroke-width="2" fill="#fff"/><use xlink:href="#c" transform="matrix(1,0,0,1,1172,672) translate(53.251953125 54.5478515625)"/><path d="M1020.48 861.62h-.96v-44.9h.96zm0-66.7h-.96V781.5h.96z" stroke="#333" stroke-width=".05" fill="#333"/><path d="M1020.48 781.5h-.96v-.5h.96z" fill="#333"/><path stroke="#333" stroke-width=".05" fill="#333"/><path d="M1020 876.38l-4.63-14.26h9.26z" fill="#333"/><path d="M1020 877.92l-5.3-16.28h10.6zm-3.98-15.33l3.98 12.24 3.98-12.25z" stroke="#333" stroke-width=".05" fill="#333"/><use xlink:href="#k" transform="matrix(1,0,0,1,937.0400390625,794.9331431153727) translate(0.0049999999999954525 17.4375)"/><use xlink:href="#l" transform="matrix(1,0,0,1,937.0400390625,794.9331431153727) translate(53.881953124999995 17.4375)"/><use xlink:href="#m" transform="matrix(1,0,0,1,937.0400390625,794.9331431153727) translate(99.74328125 17.4375)"/><path d="M280 740c19.92 17.1 32.52 17.1 39.96 17.1 12 0 27.96-17.1 39.96-17.1 7.56 0 20.04 0 40.08 17.1V843c-20.04-17.2-32.52-17.2-40.08-17.2-12 0-27.96 17.2-39.96 17.2-7.44 0-20.04 0-39.96-17.2z" stroke="#000" stroke-width="2" fill="#fff"/><use xlink:href="#a" transform="matrix(1,0,0,1,285,745) translate(6.8447265625 53.0478515625)"/><path d="M562.25 624.5c9.8 0 17.75 7.95 17.75 17.75S572.05 660 562.25 660h-124.5c-9.8 0-17.75-7.95-17.75-17.75s7.95-17.75 17.75-17.75z" stroke="#000" stroke-width="2" fill="#fff"/><use xlink:href="#d" transform="matrix(1,0,0,1,425,629.5) translate(10.72119140625 19.5478515625)"/><use xlink:href="#e" transform="matrix(1,0,0,1,425,629.5) translate(96.64306640625 19.5478515625)"/><path d="M397.36 624.5c9.8 0 17.75 7.95 17.75 17.75S407.17 660 397.37 660h-124.5c-9.8 0-17.75-7.95-17.75-17.75s7.95-17.75 17.76-17.75z" stroke="#000" stroke-width="2" fill="#fff"/><use xlink:href="#d" transform="matrix(1,0,0,1,260.106394548775,629.5) translate(10.72119140625 19.5478515625)"/><use xlink:href="#e" transform="matrix(1,0,0,1,260.106394548775,629.5) translate(96.64306640625 19.5478515625)"/><path d="M335.58 607.12h-.95v-23.44h.95zm-175.1-66.9l.14 1.83.42 1.76.7 1.68.94 1.54 1.17 1.38 1.38 1.17 1.54.95 1.67.7 1.76.4 1.82.15h151.1l1.94.16 1.9.45 1.8.75 1.68 1.03 1.5 1.27 1.26 1.5 1.02 1.66.75 1.8.46 1.9.15 1.93v3.3h-.95v-3.26l-.14-1.82-.43-1.76-.7-1.68-.94-1.54-1.18-1.38-1.37-1.17-1.54-.95-1.67-.7-1.76-.4-1.8-.15H171.97l-1.93-.16-1.9-.45-1.8-.75-1.68-1.03-1.5-1.27-1.26-1.5-1.02-1.66-.75-1.8-.45-1.9-.16-1.93V481.5h.95z" stroke="#333" stroke-width=".05" fill="#333"/><path d="M160.47 481.5h-.94v-.5h.94z" fill="#333"/><path stroke="#333" stroke-width=".05" fill="#333"/><path d="M335.1 621.88l-4.63-14.26h9.27z" fill="#333"/><path d="M335.1 623.42l-5.28-16.28h10.57zm-3.98-15.33l4 12.25 3.97-12.26zM160.47 540.23l.15 1.82.42 1.76.7 1.68.94 1.54 1.17 1.38 1.38 1.17 1.54.95 1.67.7 1.76.4 1.82.15h316l1.93.16 1.9.45 1.8.75 1.68 1.03 1.5 1.27 1.26 1.5 1.02 1.66.75 1.8.45 1.9.16 1.93v42.9h-.96v-42.86l-.14-1.82-.42-1.76-.7-1.68-.94-1.54-1.17-1.38-1.38-1.17-1.54-.95-1.67-.7-1.76-.4-1.82-.15h-316l-1.93-.16-1.9-.45-1.8-.75-1.68-1.03-1.5-1.27-1.26-1.5-1.02-1.66-.75-1.8-.45-1.9-.16-1.93V481.5h.95z" stroke="#333" stroke-width=".05" fill="#333"/><path d="M160.47 481.5h-.94v-.5h.94z" fill="#333"/><path stroke="#333" stroke-width=".05" fill="#333"/><path d="M500 621.88l-4.63-14.26h9.26z" fill="#333"/><path d="M500 623.42l-5.3-16.28h10.6zm-3.98-15.33l3.98 12.25 3.98-12.26zM488.02 390.94l1.93.16 1.9.45 1.8.75 1.68 1.02 1.5 1.28 1.26 1.48 1.02 1.68.75 1.8.45 1.9.16 1.94v203.72h-.96V403.44l-.14-1.82-.42-1.76-.7-1.67-.94-1.56-1.17-1.37-1.38-1.17-1.54-.95-1.67-.7-1.76-.4-1.82-.16h-9.37v-.96zm-67.4-9.72l.42 1.76.7 1.67.94 1.54 1.17 1.37 1.38 1.17 1.54.95 1.67.68 1.76.42 1.82.14h9.37v.95h-9.42l-1.93-.16-1.9-.45-1.8-.76-1.68-1.03-1.5-1.26-1.26-1.5-1.02-1.66-.75-1.8-.45-1.9-.16-1.94v-219.6h.96V379.4z" stroke="#333" stroke-width=".05" fill="#333"/><path d="M420 159.34l.48-.03v.55h-.96v-.54z" fill="#333"/><path stroke="#333" stroke-width=".05" fill="#333"/><path d="M500 621.88l-4.63-14.26h9.26z" fill="#333"/><path d="M500 623.42l-5.3-16.28h10.6zm-3.98-15.33l3.98 12.25 3.98-12.26z" stroke="#333" stroke-width=".05" fill="#333"/><use xlink:href="#n" transform="matrix(1,0,0,1,441.39355468749994,380.529082010292) translate(0.004999999999999005 17.4375)"/><path d="M375.1 980c0 22.1-17.9 40-40 40s-40-17.9-40-40 17.9-40 40-40 40 17.9 40 40z" stroke="#000" stroke-width="2" fill="#fff"/><use xlink:href="#j" transform="matrix(1,0,0,1,300.106394548775,945) translate(19.72900390625 41.5478515625)"/><path d="M180 980c0 22.1-17.9 40-40 40s-40-17.9-40-40 17.9-40 40-40 40 17.9 40 40z" stroke="#000" stroke-width="2" fill="#fff"/><use xlink:href="#j" transform="matrix(1,0,0,1,105,945) translate(19.72900390625 41.5478515625)"/><path d="M1078.77 1070.94v3.2a12 12 0 0 0 12 12h12.15" stroke="#333" fill="none"/><path d="M1079.24 1070.8v.15h-.95v-.87z" stroke="#333" stroke-width=".05" fill="#333"/><path d="M1103.53 1100.23l-5.25-14.05 9.26-.4z" stroke="#333" fill="#333"/><path d="M1020 1062.9v22.34" stroke="#333" fill="none"/><path d="M1020.48 1062.92h-.96v-.25l.96-.53z" stroke="#333" stroke-width=".05" fill="#333"/><path d="M1020 1100l-4.63-14.26h9.26z" stroke="#333" fill="#333"/><path d="M1020 1062.9v7.12a12 12 0 0 1-12 12h-64.78a3.22 3.22 0 0 0-3.22 3.22" stroke="#333" fill="none"/><path d="M1020.48 1062.92h-.96v-.25l.96-.53z" stroke="#333" stroke-width=".05" fill="#333"/><path d="M940 1100l-4.63-14.26h9.26z" stroke="#333" fill="#333"/><path d="M1020 916v42.34" stroke="#333" fill="none"/><path d="M1020.48 916h-.96v-.5h.96z" stroke="#333" stroke-width=".05" fill="#333"/><path d="M1020 973.1l-4.63-14.26h9.26z" stroke="#333" fill="#333"/><path d="M1020 491.38v71.56a12 12 0 0 0 12 12h196a12 12 0 0 1 12 12v55.68" stroke="#333" fill="none"/><path d="M1020.48 491.4h-.96v-.28l.96-.48z" stroke="#333" stroke-width=".05" fill="#333"/><path d="M1240 657.38l-4.63-14.26h9.27z" stroke="#333" fill="#333"/><path d="M1020 491.38v151.24" stroke="#333" fill="none"/><path d="M1020.48 491.4h-.96v-.28l.96-.48z" stroke="#333" stroke-width=".05" fill="#333"/><path d="M1020 657.38l-4.63-14.26h9.26z" stroke="#333" fill="#333"/><path d="M335.58 607.12h-.95v-23.44h.95zm23.37-215.23h-11.82l-1.83.14-1.75.42-1.68.7-1.54.94-1.37 1.17-1.18 1.38-.94 1.54-.7 1.66-.4 1.76-.16 1.82v164.1h-.95V403.4l.15-1.93.46-1.9.75-1.8 1-1.7 1.28-1.47 1.5-1.28 1.66-1.02 1.8-.75 1.9-.45 1.95-.16h11.85zm61.53-12.46l-.16 1.93-.45 1.9-.75 1.8-1.03 1.68-1.28 1.5-1.5 1.26-1.66 1.04-1.8.75-1.9.44-1.94.15h-11.86v-.96h11.82l1.82-.14 1.76-.42 1.67-.7 1.54-.94 1.38-1.17 1.17-1.38.95-1.55.7-1.67.4-1.76.15-1.82V159.84h.96z" stroke="#333" stroke-width=".05" fill="#333"/><path d="M420 159.34l.48-.03v.55h-.96v-.54z" fill="#333"/><path stroke="#333" stroke-width=".05" fill="#333"/><path d="M335.1 621.88l-4.63-14.26h9.27z" fill="#333"/><path d="M335.1 623.42l-5.28-16.28h10.57zm-3.98-15.33l4 12.25 3.97-12.26z" stroke="#333" stroke-width=".05" fill="#333"/><use xlink:href="#n" transform="matrix(1,0,0,1,358.9467519618875,380.529082010292) translate(0.004999999999999005 17.4375)"/><path d="M613.6 44.8a10.67 10.67 0 0 1 12.8 0l67.2 50.4a6 6 0 0 1 0 9.6l-67.2 50.4a10.67 10.67 0 0 1-12.8 0l-67.2-50.4a6 6 0 0 1 0-9.6z" stroke="#1071e5" stroke-width="4" fill="#6db1ff"/><use xlink:href="#o" transform="matrix(1,0,0,1,545,45) translate(23.741923828124996 61.089501953125)"/><use xlink:href="#p" transform="matrix(1,0,0,1,545,45) translate(82.6180078125 61.089501953125)"/><path d="M620.48 707.64l-.16 1.94-.45 1.9-.75 1.8-1.03 1.68-1.28 1.5-1.5 1.26-1.66 1.02-1.8.75-1.9.45-1.94.15H561.5v-.95h46.48l1.82-.14 1.76-.42 1.67-.7 1.54-.93 1.38-1.18 1.17-1.37.95-1.54.7-1.67.4-1.77.15-1.82V479.88h.96zm0-249.55h-.96V175.7h.96z" stroke="#333" stroke-width=".05" fill="#333"/><path d="M561.5 720.1h-.5v-.95h.5z" fill="#333"/><path stroke="#333" stroke-width=".05" fill="#333"/><path d="M624.63 175.22h-9.26l4.63-14.26z" fill="#333"/><path d="M625.3 175.7h-10.6l5.3-16.28zm-9.28-.95h7.96L620 162.5z" stroke="#333" stroke-width=".05" fill="#333"/><use xlink:href="#q" transform="matrix(1,0,0,1,601.7451171875,458.0914357918415) translate(0.004999999999999005 17.4375)"/><path d="M335.58 623h-.95v-39.32h.95zm0-55.46h-.95V267.52h.95zM609.95.34l1.9.46 1.8.75 1.68 1.02 1.5 1.27 1.26 1.5L619.1 7l.75 1.8.45 1.9.15 1.94v11.64h-.95v-11.6l-.14-1.82-.42-1.76-.7-1.67-.94-1.54-1.17-1.4-1.38-1.16-1.54-.94-1.67-.7-1.76-.42-1.82-.14H347.12l-1.82.14-1.75.42-1.68.7-1.54.94-1.37 1.17-1.18 1.4-.94 1.53-.7 1.67-.4 1.76-.16 1.82v233.06h-.95V12.64l.15-1.93.46-1.9L336 7l1-1.67 1.28-1.5 1.5-1.26 1.66-1.02 1.8-.75 1.9-.46L347.1.2H608z" stroke="#333" stroke-width=".05" fill="#333"/><path d="M335.58 623.5h-.95v-.5h.95z" fill="#333"/><path stroke="#333" stroke-width=".05" fill="#333"/><path d="M620 39.05l-4.63-14.27h9.26z" fill="#333"/><path d="M620 40.58l-5.3-16.28h10.6zm-3.98-15.33L620 37.5l3.98-12.25z" stroke="#333" stroke-width=".05" fill="#333"/><use xlink:href="#r" transform="matrix(1,0,0,1,306.476023455025,245.73595607133058) translate(0.004999999999999005 17.4375)"/><use xlink:href="#s" transform="matrix(1,0,0,1,257.21251434044166,567.5445753641307) translate(0.0049999999999954525 12.916666666666668)"/><use xlink:href="#t" transform="matrix(1,0,0,1,257.21251434044166,567.5445753641307) translate(78.70942708333334 12.916666666666668)"/><path d="M413.6 44.8a10.67 10.67 0 0 1 12.8 0l67.2 50.4a6 6 0 0 1 0 9.6l-67.2 50.4a10.67 10.67 0 0 1-12.8 0l-67.2-50.4a6 6 0 0 1 0-9.6z" stroke="#e81313" stroke-width="4" fill="#fe7070"/><use xlink:href="#o" transform="matrix(1,0,0,1,345,45) translate(15.997221679687499 61.089501953125)"/><use xlink:href="#u" transform="matrix(1,0,0,1,345,45) translate(74.8733056640625 61.089501953125)"/><path d="M80 188a8 8 0 0 1 8-8h144a8 8 0 0 1 8 8v112c-26.72-20.04-43.36-20.04-53.44-20.04-16 0-37.28 20.04-53.28 20.04-9.92 0-26.72 0-53.28-20.04z" stroke="#ff80df" stroke-width="2" fill="#fff"/><use xlink:href="#b" transform="matrix(1,0,0,1,92,192) translate(49.771484375 44.5478515625)"/><path d="M160 291.38v51.24" stroke="#333" fill="none"/><path d="M160.47 291.4h-.94v-.28l.94-.48z" stroke="#333" stroke-width=".05" fill="#333"/><path d="M160 357.38l-4.63-14.26h9.26z" stroke="#333" fill="#333"/><path d="M1060 200c22.1 0 40 17.9 40 40s-17.9 40-40 40h-80c-22.1 0-40-17.9-40-40s17.9-40 40-40z" stroke="#000" stroke-width="2" fill="#fff"/><use xlink:href="#v" transform="matrix(1,0,0,1,945,205) translate(36.2138671875 41.5478515625)"/><path d="M1020 281.5v81.12" stroke="#333" fill="none"/><path d="M1020.48 281.5h-.96v-.5h.96z" stroke="#333" stroke-width=".05" fill="#333"/><path d="M1020 377.38l-4.63-14.26h9.26z" stroke="#333" fill="#333"/><path d="M340 835.78v39.36a12 12 0 0 1-12 12H152a12 12 0 0 0-12 12v23.48" stroke="#333" fill="none"/><path d="M340.48 835.8h-.96v-.25l.96-.53z" stroke="#333" stroke-width=".05" fill="#333"/><path d="M140 937.38l-4.63-14.26h9.26z" stroke="#333" fill="#333"/><path d="M340 835.78v87.14" stroke="#333" fill="none"/><path d="M340.48 835.8h-.96v-.25l.96-.53z" stroke="#333" stroke-width=".05" fill="#333"/><path d="M340 937.68l-4.63-14.26h9.26z" stroke="#333" fill="#333"/><path d="M927.4 828.76a8 8 0 0 1 8-8h224a8 8 0 0 1 8 8v44a8 8 0 0 1-8 8h-224a8 8 0 0 1-8-8z" fill="none"/><use xlink:href="#w" transform="matrix(1,0,0,1,927.4087646942353,820.757621741388) translate(101.8154296875 36.5478515625)"/><path d="M561.5 719.63h39.3a.2.2 0 0 1 .2.18.2.2 0 0 1-.2.2H576.4" stroke="#333" fill="none"/><path d="M561.5 720.1h-.5v-.95h.5z" stroke="#333" stroke-width=".05" fill="#333"/><path d="M561.62 720l14.26-4.63v9.26z" stroke="#333" fill="#333"/><path d="M-20 620.25a8 8 0 0 1 8-8h224a8 8 0 0 1 8 8v44a8 8 0 0 1-8 8H-12a8 8 0 0 1-8-8z" fill="none"/><g><use xlink:href="#x" transform="matrix(1,0,0,1,-20,612.25) translate(48.78255208333333 25.170572916666664)"/><use xlink:href="#y" transform="matrix(1,0,0,1,-20,612.25) translate(130.16276041666669 25.170572916666664)"/><use xlink:href="#z" transform="matrix(1,0,0,1,-20,612.25) translate(113.11197916666667 44.529947916666664)"/></g><path d="M220.5 642.25h17.2" stroke="#333" fill="none"/><path d="M220.5 642.73h-.5v-.96h.5z" stroke="#333" stroke-width=".05" fill="#333"/><path d="M252.48 642.25l-14.27 4.63v-9.26z" stroke="#333" fill="#333"/><path d="M335.1 661.5v72.45" stroke="#333" fill="none"/><path d="M335.58 661.5h-.95v-.5h.95z" stroke="#333" stroke-width=".05" fill="#333"/><path d="M335.1 748.7l-4.63-14.25h9.27z" stroke="#333" fill="#333"/><defs><path fill="#666" d="M613 24c-304 0-509-231-509-576 0-350 205-580 509-580 216 0 392 114 453 309l-173 49c-33-115-133-197-280-197-223 0-326 196-326 419 0 220 103 415 326 415 150 0 252-85 285-206l172 49C1010-95 832 24 613 24" id="A"/><path fill="#666" d="M613 24c-304 0-509-231-509-576 0-350 205-580 509-580 305 0 511 230 511 580 0 345-206 576-511 576zm0-161c226 0 329-195 329-415 0-222-103-419-329-419-223 0-326 196-326 419 0 220 103 415 326 415" id="B"/><path fill="#666" d="M158 0v-1118h175l1 205c55-151 181-225 313-225 147 0 245 90 285 228 53-141 190-228 352-228 194 0 352 125 352 384V0h-181v-749c0-161-105-225-225-225-151 0-243 103-243 244V0H807v-767c0-124-93-207-219-207-131 0-250 92-250 270V0H158" id="C"/><path fill="#666" d="M158 418v-1536h174v179h20c37-59 106-193 324-193 279 0 474 222 474 576 0 356-194 580-473 580-213 0-288-135-325-197h-14v591H158zm492-555c209 0 317-186 317-421 0-232-105-413-317-413-206 0-314 166-314 413 0 249 111 421 314 421" id="D"/><path fill="#666" d="M338-670V0H158v-1118h173l1 207c72-158 192-221 342-221 226 0 378 139 378 422V0H872v-695c0-172-96-275-252-275-161 0-282 109-282 300" id="E"/><path fill="#666" d="M628 24c-324 0-524-230-524-574 0-343 198-582 503-582 237 0 487 146 487 559v75H286c9 234 145 362 343 362 132 0 231-58 273-172l174 48C1024-91 857 24 628 24zM287-650h624c-17-190-120-322-304-322-192 0-309 151-320 322" id="F"/><path fill="#666" d="M598-1118v154H368v674c0 100 37 144 132 144 23 0 62-6 92-12L629-6c-37 13-88 20-134 20-193 0-307-107-307-290v-688H20v-154h168v-266h180v266h230" id="G"/><g id="a"><use transform="matrix(0.0087890625,0,0,0.0087890625,0,0)" xlink:href="#A"/><use transform="matrix(0.0087890625,0,0,0.0087890625,10.283203125,0)" xlink:href="#B"/><use transform="matrix(0.0087890625,0,0,0.0087890625,21.076171875,0)" xlink:href="#C"/><use transform="matrix(0.0087890625,0,0,0.0087890625,36.84375,0)" xlink:href="#D"/><use transform="matrix(0.0087890625,0,0,0.0087890625,47.865234375,0)" xlink:href="#B"/><use transform="matrix(0.0087890625,0,0,0.0087890625,58.658203125,0)" xlink:href="#E"/><use transform="matrix(0.0087890625,0,0,0.0087890625,69.29296875,0)" xlink:href="#F"/><use transform="matrix(0.0087890625,0,0,0.0087890625,79.787109375,0)" xlink:href="#E"/><use transform="matrix(0.0087890625,0,0,0.0087890625,90.421875,0)" xlink:href="#G"/></g><path fill="#666" d="M677 24c-213 0-288-135-325-197h-20V0H158v-1490h180v551h14c37-59 106-193 324-193 279 0 474 222 474 576 0 356-194 580-473 580zm-27-161c209 0 317-186 317-421 0-232-105-413-317-413-206 0-314 166-314 413 0 249 111 421 314 421" id="H"/><path fill="#666" d="M338-1490V0H158v-1490h180" id="I"/><g id="b"><use transform="matrix(0.0087890625,0,0,0.0087890625,0,0)" xlink:href="#H"/><use transform="matrix(0.0087890625,0,0,0.0087890625,11.021484375,0)" xlink:href="#I"/><use transform="matrix(0.0087890625,0,0,0.0087890625,15.380859375,0)" xlink:href="#B"/><use transform="matrix(0.0087890625,0,0,0.0087890625,26.173828125,0)" xlink:href="#A"/></g><g id="c"><use transform="matrix(0.0087890625,0,0,0.0087890625,0,0)" xlink:href="#A"/><use transform="matrix(0.0087890625,0,0,0.0087890625,10.283203125,0)" xlink:href="#F"/><use transform="matrix(0.0087890625,0,0,0.0087890625,20.77734375,0)" xlink:href="#I"/><use transform="matrix(0.0087890625,0,0,0.0087890625,25.13671875,0)" xlink:href="#I"/></g><path fill="#666" d="M158 0v-1118h174v172h12c41-113 157-188 290-188 26 0 70 2 91 3v181c-11-2-60-10-108-10-161 0-279 109-279 260V0H158" id="J"/><g id="d"><use transform="matrix(0.0087890625,0,0,0.0087890625,0,0)" xlink:href="#A"/><use transform="matrix(0.0087890625,0,0,0.0087890625,10.283203125,0)" xlink:href="#B"/><use transform="matrix(0.0087890625,0,0,0.0087890625,21.076171875,0)" xlink:href="#E"/><use transform="matrix(0.0087890625,0,0,0.0087890625,31.7109375,0)" xlink:href="#G"/><use transform="matrix(0.0087890625,0,0,0.0087890625,37.599609375,0)" xlink:href="#J"/><use transform="matrix(0.0087890625,0,0,0.0087890625,44.0771484375,0)" xlink:href="#B"/><use transform="matrix(0.0087890625,0,0,0.0087890625,54.8701171875,0)" xlink:href="#I"/><use transform="matrix(0.0087890625,0,0,0.0087890625,59.2294921875,0)" xlink:href="#I"/><use transform="matrix(0.0087890625,0,0,0.0087890625,63.5888671875,0)" xlink:href="#F"/><use transform="matrix(0.0087890625,0,0,0.0087890625,74.0830078125,0)" xlink:href="#J"/></g><path fill="#666" d="M409 0L70-1118h191c89 329 165 560 243 925 75-353 154-601 240-925h192c85 325 161 564 235 922 77-354 157-598 244-922h191L1267 0h-179c-86-307-176-590-250-913C763-588 675-308 588 0H409" id="K"/><path fill="#666" d="M471 26C259 26 90-98 90-318c0-256 228-303 435-329 202-27 287-16 287-108 0-139-79-219-234-219-161 0-248 86-283 164l-173-57c86-203 278-265 451-265 150 0 419 46 419 395V0H815v-152h-12C765-73 660 26 471 26zm31-159c199 0 310-134 310-271v-155c-30 35-226 55-295 64-131 17-246 59-246 186 0 116 97 176 231 176" id="L"/><g id="e"><use transform="matrix(0.0087890625,0,0,0.0087890625,0,0)" xlink:href="#K"/><use transform="matrix(0.0087890625,0,0,0.0087890625,14.73046875,0)" xlink:href="#J"/><use transform="matrix(0.0087890625,0,0,0.0087890625,21.5068359375,0)" xlink:href="#L"/><use transform="matrix(0.0087890625,0,0,0.0087890625,31.6142578125,0)" xlink:href="#D"/></g><path fill="#666" d="M338-670V0H158v-1490h180v566c73-149 190-208 336-208 226 0 379 139 379 422V0H872v-695c0-172-96-275-252-275-161 0-282 109-282 300" id="M"/><g id="f"><use transform="matrix(0.0087890625,0,0,0.0087890625,0,0)" xlink:href="#G"/><use transform="matrix(0.0087890625,0,0,0.0087890625,5.888671875,0)" xlink:href="#M"/><use transform="matrix(0.0087890625,0,0,0.0087890625,16.5322265625,0)" xlink:href="#F"/><use transform="matrix(0.0087890625,0,0,0.0087890625,27.0263671875,0)" xlink:href="#C"/><use transform="matrix(0.0087890625,0,0,0.0087890625,42.7939453125,0)" xlink:href="#F"/></g><path fill="#666" d="M65 0l393-574-370-544h210c88 136 192 297 267 435 67-142 176-302 264-435h206L661-564 1053 0H844c-94-144-206-310-287-458C484-308 366-142 273 0H65" id="N"/><g id="g"><use transform="matrix(0.0087890625,0,0,0.0087890625,0,0)" xlink:href="#A"/><use transform="matrix(0.0087890625,0,0,0.0087890625,10.283203125,0)" xlink:href="#B"/><use transform="matrix(0.0087890625,0,0,0.0087890625,21.076171875,0)" xlink:href="#E"/><use transform="matrix(0.0087890625,0,0,0.0087890625,31.7109375,0)" xlink:href="#G"/><use transform="matrix(0.0087890625,0,0,0.0087890625,37.423828125,0)" xlink:href="#F"/><use transform="matrix(0.0087890625,0,0,0.0087890625,47.513671875,0)" xlink:href="#N"/><use transform="matrix(0.0087890625,0,0,0.0087890625,57.69140625,0)" xlink:href="#G"/></g><path fill="#666" d="M538 24C308 24 148-78 108-271l171-41c32 123 123 178 257 178 156 0 256-77 256-169 0-77-54-128-164-154l-186-44c-203-48-300-148-300-305 0-192 176-326 414-326 230 0 351 112 402 269l-163 42c-31-80-94-158-238-158-133 0-233 69-233 162 0 83 57 129 188 160l169 40c203 48 298 149 298 302 0 196-179 339-441 339" id="O"/><g id="h"><use transform="matrix(0.0087890625,0,0,0.0087890625,0,0)" xlink:href="#H"/><use transform="matrix(0.0087890625,0,0,0.0087890625,11.197265625,0)" xlink:href="#L"/><use transform="matrix(0.0087890625,0,0,0.0087890625,21.3046875,0)" xlink:href="#O"/><use transform="matrix(0.0087890625,0,0,0.0087890625,30.8056640625,0)" xlink:href="#F"/></g><path fill="#666" d="M140 405l46-156c120 36 205 19 263-150l32-93L54-1118h197c107 313 237 620 324 950 87-331 219-637 326-950h196L606 167c-68 178-176 259-334 259-64 0-113-12-132-21" id="P"/><g id="i"><use transform="matrix(0.0087890625,0,0,0.0087890625,0,0)" xlink:href="#O"/><use transform="matrix(0.0087890625,0,0,0.0087890625,9.5009765625,0)" xlink:href="#G"/><use transform="matrix(0.0087890625,0,0,0.0087890625,15.7412109375,0)" xlink:href="#P"/><use transform="matrix(0.0087890625,0,0,0.0087890625,25.9453125,0)" xlink:href="#I"/><use transform="matrix(0.0087890625,0,0,0.0087890625,30.3046875,0)" xlink:href="#F"/></g><g id="j"><use transform="matrix(0.0087890625,0,0,0.0087890625,0,0)" xlink:href="#O"/><use transform="matrix(0.0087890625,0,0,0.0087890625,9.5009765625,0)" xlink:href="#I"/><use transform="matrix(0.0087890625,0,0,0.0087890625,13.8603515625,0)" xlink:href="#B"/><use transform="matrix(0.0087890625,0,0,0.0087890625,24.6533203125,0)" xlink:href="#G"/></g><g id="k"><use transform="matrix(0.0087890625,0,0,0.0087890625,0,0)" xlink:href="#D"/><use transform="matrix(0.0087890625,0,0,0.0087890625,11.021484375,0)" xlink:href="#J"/><use transform="matrix(0.0087890625,0,0,0.0087890625,17.4990234375,0)" xlink:href="#B"/><use transform="matrix(0.0087890625,0,0,0.0087890625,28.2919921875,0)" xlink:href="#D"/><use transform="matrix(0.0087890625,0,0,0.0087890625,39.3134765625,0)" xlink:href="#O"/></g><g id="l"><use transform="matrix(0.0087890625,0,0,0.0087890625,0,0)" xlink:href="#O"/><use transform="matrix(0.0087890625,0,0,0.0087890625,9.5009765625,0)" xlink:href="#G"/><use transform="matrix(0.0087890625,0,0,0.0087890625,15.7412109375,0)" xlink:href="#P"/><use transform="matrix(0.0087890625,0,0,0.0087890625,25.9453125,0)" xlink:href="#I"/><use transform="matrix(0.0087890625,0,0,0.0087890625,30.3046875,0)" xlink:href="#F"/></g><path fill="#666" d="M204-479l-12-1011h204L383-479H204zm91 492c-75 0-135-60-135-134 0-75 60-135 135-135 74 0 134 60 134 135 0 74-60 134-134 134" id="Q"/><path fill="#666" d="M158 0v-1118h180V0H158zm91-1301c-68 0-125-53-125-119s57-119 125-119c69 0 126 53 126 119s-57 119-126 119" id="R"/><g id="m"><use transform="matrix(0.0087890625,0,0,0.0087890625,0,0)" xlink:href="#Q"/><use transform="matrix(0.0087890625,0,0,0.0087890625,5.1767578125,0)" xlink:href="#D"/><use transform="matrix(0.0087890625,0,0,0.0087890625,16.1982421875,0)" xlink:href="#J"/><use transform="matrix(0.0087890625,0,0,0.0087890625,23.255859375,0)" xlink:href="#R"/><use transform="matrix(0.0087890625,0,0,0.0087890625,27.615234375,0)" xlink:href="#B"/><use transform="matrix(0.0087890625,0,0,0.0087890625,38.408203125,0)" xlink:href="#J"/><use transform="matrix(0.0087890625,0,0,0.0087890625,45.4658203125,0)" xlink:href="#R"/><use transform="matrix(0.0087890625,0,0,0.0087890625,49.8251953125,0)" xlink:href="#G"/><use transform="matrix(0.0087890625,0,0,0.0087890625,56.0654296875,0)" xlink:href="#P"/></g><path fill="#666" d="M577 24c-279 0-473-224-473-580 0-354 195-576 474-576 218 0 287 134 324 193h14v-551h180V0H922v-173h-20C865-111 790 24 577 24zm27-161c203 0 314-172 314-421 0-247-108-413-314-413-212 0-317 181-317 413 0 235 108 421 317 421" id="S"/><g id="n"><use transform="matrix(0.0087890625,0,0,0.0087890625,0,0)" xlink:href="#S"/><use transform="matrix(0.0087890625,0,0,0.0087890625,11.021484375,0)" xlink:href="#L"/><use transform="matrix(0.0087890625,0,0,0.0087890625,21.12890625,0)" xlink:href="#G"/><use transform="matrix(0.0087890625,0,0,0.0087890625,27.10546875,0)" xlink:href="#L"/></g><path fill="#333" d="M538 24C308 24 148-78 108-271l171-41c32 123 123 178 257 178 156 0 256-77 256-169 0-77-54-128-164-154l-186-44c-203-48-300-148-300-305 0-192 176-326 414-326 230 0 351 112 402 269l-163 42c-31-80-94-158-238-158-133 0-233 69-233 162 0 83 57 129 188 160l169 40c203 48 298 149 298 302 0 196-179 339-441 339" id="T"/><path fill="#333" d="M338-670V0H158v-1490h180v566c73-149 190-208 336-208 226 0 379 139 379 422V0H872v-695c0-172-96-275-252-275-161 0-282 109-282 300" id="U"/><path fill="#333" d="M471 26C259 26 90-98 90-318c0-256 228-303 435-329 202-27 287-16 287-108 0-139-79-219-234-219-161 0-248 86-283 164l-173-57c86-203 278-265 451-265 150 0 419 46 419 395V0H815v-152h-12C765-73 660 26 471 26zm31-159c199 0 310-134 310-271v-155c-30 35-226 55-295 64-131 17-246 59-246 186 0 116 97 176 231 176" id="V"/><path fill="#333" d="M158 0v-1118h174v172h12c41-113 157-188 290-188 26 0 70 2 91 3v181c-11-2-60-10-108-10-161 0-279 109-279 260V0H158" id="W"/><path fill="#333" d="M628 24c-324 0-524-230-524-574 0-343 198-582 503-582 237 0 487 146 487 559v75H286c9 234 145 362 343 362 132 0 231-58 273-172l174 48C1024-91 857 24 628 24zM287-650h624c-17-190-120-322-304-322-192 0-309 151-320 322" id="X"/><path fill="#333" d="M577 24c-279 0-473-224-473-580 0-354 195-576 474-576 218 0 287 134 324 193h14v-551h180V0H922v-173h-20C865-111 790 24 577 24zm27-161c203 0 314-172 314-421 0-247-108-413-314-413-212 0-317 181-317 413 0 235 108 421 317 421" id="Y"/><g id="o"><use transform="matrix(0.008173828125000001,0,0,0.008173828125000001,0,0)" xlink:href="#T"/><use transform="matrix(0.008173828125000001,0,0,0.008173828125000001,8.835908203125001,0)" xlink:href="#U"/><use transform="matrix(0.008173828125000001,0,0,0.008173828125000001,18.7344140625,0)" xlink:href="#V"/><use transform="matrix(0.008173828125000001,0,0,0.008173828125000001,28.13431640625,0)" xlink:href="#W"/><use transform="matrix(0.008173828125000001,0,0,0.008173828125000001,34.158427734374996,0)" xlink:href="#X"/><use transform="matrix(0.008173828125000001,0,0,0.008173828125000001,43.917978515624995,0)" xlink:href="#Y"/></g><path fill="#333" d="M481 0L54-1118h197c107 314 236 620 325 951 87-331 217-637 324-951h197L670 0H481" id="Z"/><path fill="#333" d="M338-670V0H158v-1118h173l1 207c72-158 192-221 342-221 226 0 378 139 378 422V0H872v-695c0-172-96-275-252-275-161 0-282 109-282 300" id="aa"/><path fill="#333" d="M598-1118v154H368v674c0 100 37 144 132 144 23 0 62-6 92-12L629-6c-37 13-88 20-134 20-193 0-307-107-307-290v-688H20v-154h168v-266h180v266h230" id="ab"/><g id="p"><use transform="matrix(0.008173828125000001,0,0,0.008173828125000001,0,0)" xlink:href="#X"/><use transform="matrix(0.008173828125000001,0,0,0.008173828125000001,9.432597656250001,0)" xlink:href="#Z"/><use transform="matrix(0.008173828125000001,0,0,0.008173828125000001,18.513720703125003,0)" xlink:href="#X"/><use transform="matrix(0.008173828125000001,0,0,0.008173828125000001,28.273271484375,0)" xlink:href="#aa"/><use transform="matrix(0.008173828125000001,0,0,0.008173828125000001,38.163603515625,0)" xlink:href="#ab"/></g><g id="q"><use transform="matrix(0.0087890625,0,0,0.0087890625,0,0)" xlink:href="#F"/><use transform="matrix(0.0087890625,0,0,0.0087890625,10.494140625,0)" xlink:href="#C"/><use transform="matrix(0.0087890625,0,0,0.0087890625,26.26171875,0)" xlink:href="#R"/><use transform="matrix(0.0087890625,0,0,0.0087890625,30.62109375,0)" xlink:href="#G"/></g><g id="r"><use transform="matrix(0.0087890625,0,0,0.0087890625,0,0)" xlink:href="#M"/><use transform="matrix(0.0087890625,0,0,0.0087890625,10.6435546875,0)" xlink:href="#L"/><use transform="matrix(0.0087890625,0,0,0.0087890625,20.7509765625,0)" xlink:href="#E"/><use transform="matrix(0.0087890625,0,0,0.0087890625,31.3857421875,0)" xlink:href="#S"/><use transform="matrix(0.0087890625,0,0,0.0087890625,42.4072265625,0)" xlink:href="#I"/><use transform="matrix(0.0087890625,0,0,0.0087890625,46.7666015625,0)" xlink:href="#F"/></g><path fill="#666" d="M441-652l13-317-268 171-72-126 282-146-282-146 72-128 268 171-13-317h144l-12 317 267-171 72 128-282 146 282 146-72 126-267-171 12 317H441" id="ac"/><path fill="#666" d="M158 0v-1118h180v484h112l398-484h228L630-577 1082 0H854L493-468H338V0H158" id="ad"/><path fill="#666" d="M613 24c-304 0-509-231-509-576 0-350 205-580 509-580 305 0 511 230 511 580 0 345-206 576-511 576zm0-161c226 0 329-195 329-415 0-222-103-419-329-419-223 0-326 196-326 419 0 220 103 415 326 415" id="ae"/><path fill="#666" d="M338-1118v477h534v-477h181V0H872v-475H338V0H158v-1118h180" id="af"/><path fill="#666" d="M388 0v-957H20v-161h914v161H568V0H388" id="ag"/><path fill="#666" d="M628 24c-324 0-524-230-524-574 0-343 198-582 503-582 237 0 487 146 487 559v75H286c9 234 145 362 343 362 132 0 231-58 273-172l174 48C1024-91 857 24 628 24zM287-650h624c-17-190-120-322-304-322-192 0-309 151-320 322" id="ah"/><path fill="#666" d="M1053 0H872v-806h-13L329 0H158v-1118h180v809h13l532-809h170V0zM605-1275c-162 0-290-124-290-283h132c0 91 66 155 158 155s158-64 158-155h132c0 158-127 283-290 283" id="ai"/><path fill="#666" d="M158 418v-1536h174v179h20c37-59 106-193 324-193 279 0 474 222 474 576 0 356-194 580-473 580-213 0-288-135-325-197h-14v591H158zm492-555c209 0 317-186 317-421 0-232-105-413-317-413-206 0-314 166-314 413 0 249 111 421 314 421" id="aj"/><g id="s"><use transform="matrix(0.006510416666666667,0,0,0.006510416666666667,0,0)" xlink:href="#ac"/><use transform="matrix(0.006510416666666667,0,0,0.006510416666666667,6.6796875,0)" xlink:href="#ad"/><use transform="matrix(0.006510416666666667,0,0,0.006510416666666667,13.60677083333333,0)" xlink:href="#ae"/><use transform="matrix(0.006510416666666667,0,0,0.006510416666666667,21.6015625,0)" xlink:href="#af"/><use transform="matrix(0.006510416666666667,0,0,0.006510416666666667,29.485677083333336,0)" xlink:href="#ag"/><use transform="matrix(0.006510416666666667,0,0,0.006510416666666667,35.47526041666667,0)" xlink:href="#ah"/><use transform="matrix(0.006510416666666667,0,0,0.006510416666666667,43.24869791666667,0)" xlink:href="#ai"/><use transform="matrix(0.006510416666666667,0,0,0.006510416666666667,51.13281250000001,0)" xlink:href="#af"/><use transform="matrix(0.006510416666666667,0,0,0.006510416666666667,59.01692708333335,0)" xlink:href="#ah"/><use transform="matrix(0.006510416666666667,0,0,0.006510416666666667,66.79036458333334,0)" xlink:href="#aj"/></g><path fill="#666" d="M1053 0H872v-806h-13L329 0H158v-1118h180v809h13l532-809h170V0" id="ak"/><path fill="#666" d="M504 13C281 13 99-100 94-275h184c5 76 107 135 226 135 133 0 226-77 226-180 0-109-97-184-251-184h-73v-134h73c126 0 221-70 221-175 0-100-77-170-191-170-112 0-213 61-216 153H119c4-179 180-300 392-300 224 0 365 139 365 309 0 133-94 218-214 241v8c171 27 258 126 258 264 0 186-174 321-416 321" id="al"/><path fill="#666" d="M20 0v-166h40c130 0 171-81 186-454l20-498h754V0H839v-952H437l-17 394C398-160 328 21 20 0" id="am"/><path fill="#666" d="M158 0v-1118h457c242 0 397 118 397 298 0 131-85 205-218 232 129 19 261 115 261 288S916 0 686 0H158zm171-164h357c115 0 184-58 184-152 0-114-70-182-184-182H329v334zm0-485h287c134 0 215-60 215-156 0-93-82-149-216-149H329v305" id="an"/><path fill="#666" d="M471 26C259 26 90-98 90-318c0-256 228-303 435-329 202-27 287-16 287-108 0-139-79-219-234-219-161 0-248 86-283 164l-173-57c86-203 278-265 451-265 150 0 419 46 419 395V0H815v-152h-12C765-73 660 26 471 26zm31-159c199 0 310-134 310-271v-155c-30 35-226 55-295 64-131 17-246 59-246 186 0 116 97 176 231 176" id="ao"/><g id="t"><use transform="matrix(0.006510416666666667,0,0,0.006510416666666667,0,0)" xlink:href="#ak"/><use transform="matrix(0.006510416666666667,0,0,0.006510416666666667,7.884114583333334,0)" xlink:href="#al"/><use transform="matrix(0.006510416666666667,0,0,0.006510416666666667,14.47265625,0)" xlink:href="#ae"/><use transform="matrix(0.006510416666666667,0,0,0.006510416666666667,22.467447916666668,0)" xlink:href="#am"/><use transform="matrix(0.006510416666666667,0,0,0.006510416666666667,30.13671875,0)" xlink:href="#ak"/><use transform="matrix(0.006510416666666667,0,0,0.006510416666666667,38.020833333333336,0)" xlink:href="#aj"/><use transform="matrix(0.006510416666666667,0,0,0.006510416666666667,46.184895833333336,0)" xlink:href="#ae"/><use transform="matrix(0.006510416666666667,0,0,0.006510416666666667,54.1796875,0)" xlink:href="#an"/><use transform="matrix(0.006510416666666667,0,0,0.006510416666666667,61.712239583333336,0)" xlink:href="#ao"/><use transform="matrix(0.006510416666666667,0,0,0.006510416666666667,69.19921875,0)" xlink:href="#af"/></g><path fill="#333" d="M613 24c-304 0-509-231-509-576 0-350 205-580 509-580 216 0 392 114 453 309l-173 49c-33-115-133-197-280-197-223 0-326 196-326 419 0 220 103 415 326 415 150 0 252-85 285-206l172 49C1010-95 832 24 613 24" id="ap"/><path fill="#333" d="M613 24c-304 0-509-231-509-576 0-350 205-580 509-580 305 0 511 230 511 580 0 345-206 576-511 576zm0-161c226 0 329-195 329-415 0-222-103-419-329-419-223 0-326 196-326 419 0 220 103 415 326 415" id="aq"/><path fill="#333" d="M65 0l393-574-370-544h210c88 136 192 297 267 435 67-142 176-302 264-435h206L661-564 1053 0H844c-94-144-206-310-287-458C484-308 366-142 273 0H65" id="ar"/><g id="u"><use transform="matrix(0.008173828125000001,0,0,0.008173828125000001,0,0)" xlink:href="#ap"/><use transform="matrix(0.008173828125000001,0,0,0.008173828125000001,9.563378906250001,0)" xlink:href="#aq"/><use transform="matrix(0.008173828125000001,0,0,0.008173828125000001,19.600839843750002,0)" xlink:href="#aa"/><use transform="matrix(0.008173828125000001,0,0,0.008173828125000001,29.491171875000003,0)" xlink:href="#ab"/><use transform="matrix(0.008173828125000001,0,0,0.008173828125000001,34.80416015625,0)" xlink:href="#X"/><use transform="matrix(0.008173828125000001,0,0,0.008173828125000001,44.18771484375,0)" xlink:href="#ar"/><use transform="matrix(0.008173828125000001,0,0,0.008173828125000001,53.65300781250001,0)" xlink:href="#ab"/></g><path fill="#666" d="M657 26c-323 0-524-166-541-416h195c15 169 171 246 346 246 202 0 356-106 356-265 5-203-294-238-475-293-239-73-380-191-380-389 0-252 224-419 512-419 294 0 499 171 508 396H992c-17-145-151-228-328-228-193 0-321 102-321 242 0 156 175 211 284 241l149 41c160 44 422 134 422 412 0 244-197 432-541 432" id="as"/><path fill="#666" d="M783 20c-382 0-661-292-661-764 0-473 279-766 661-766 302 0 548 182 601 489h-190c-42-204-217-313-411-313-268 0-476 208-476 590 0 381 209 588 476 588 195 0 369-110 411-313h190c-52 303-296 489-601 489" id="at"/><path fill="#666" d="M180 0v-1490h190v644h782v-644h190V0h-190v-678H370V0H180" id="au"/><path fill="#666" d="M180 0v-1490h908v168H370v486h669v168H370v500h727V0H180" id="av"/><path fill="#666" d="M180 0v-1490h270l367 940c28 72 75 218 110 339 35-117 81-264 110-339l362-940h271V0h-187c2-448-5-837 7-1287-157 497-311 829-483 1287H842C666-458 514-784 354-1284c12 438 5 843 7 1284H180" id="aw"/><path fill="#666" d="M52 0l541-1490h220L1361 0h-200l-149-416H398L254 0H52zm404-582h497c-103-290-145-390-251-756-108 377-145 460-246 756" id="ax"/><g id="v"><use transform="matrix(0.0087890625,0,0,0.0087890625,0,0)" xlink:href="#as"/><use transform="matrix(0.0087890625,0,0,0.0087890625,11.548828125,0)" xlink:href="#at"/><use transform="matrix(0.0087890625,0,0,0.0087890625,24.697265625,0)" xlink:href="#au"/><use transform="matrix(0.0087890625,0,0,0.0087890625,38.07421875,0)" xlink:href="#av"/><use transform="matrix(0.0087890625,0,0,0.0087890625,48.8935546875,0)" xlink:href="#aw"/><use transform="matrix(0.0087890625,0,0,0.0087890625,65.1533203125,0)" xlink:href="#ax"/></g><path fill="#666" d="M98-1322v-168h1126v168H757V0H567v-1322H98" id="ay"/><g id="w"><use transform="matrix(0.0087890625,0,0,0.0087890625,0,0)" xlink:href="#ay"/><use transform="matrix(0.0087890625,0,0,0.0087890625,10.212890625,0)" xlink:href="#F"/><use transform="matrix(0.0087890625,0,0,0.0087890625,20.302734375,0)" xlink:href="#N"/><use transform="matrix(0.0087890625,0,0,0.0087890625,30.48046875,0)" xlink:href="#G"/></g><path fill="#d916a8" d="M140 405l46-156c120 36 205 19 263-150l32-93L54-1118h197c107 313 237 620 324 950 87-331 219-637 326-950h196L606 167c-68 178-176 259-334 259-64 0-113-12-132-21" id="az"/><path fill="#d916a8" d="M1046-1118V0H866v-952H339V0H158v-1118h888" id="aA"/><path fill="#d916a8" d="M158 418v-1536h174v179h20c37-59 106-193 324-193 279 0 474 222 474 576 0 356-194 580-473 580-213 0-288-135-325-197h-14v591H158zm492-555c209 0 317-186 317-421 0-232-105-413-317-413-206 0-314 166-314 413 0 249 111 421 314 421" id="aB"/><path fill="#d916a8" d="M471 26C259 26 90-98 90-318c0-256 228-303 435-329 202-27 287-16 287-108 0-139-79-219-234-219-161 0-248 86-283 164l-173-57c86-203 278-265 451-265 150 0 419 46 419 395V0H815v-152h-12C765-73 660 26 471 26zm31-159c199 0 310-134 310-271v-155c-30 35-226 55-295 64-131 17-246 59-246 186 0 116 97 176 231 176" id="aC"/><path fill="#d916a8" d="M158 0v-1118h457c242 0 397 118 397 298 0 131-85 205-218 232 129 19 261 115 261 288S916 0 686 0H158zm171-164h357c115 0 184-58 184-152 0-114-70-182-184-182H329v334zm0-485h287c134 0 215-60 215-156 0-93-82-149-216-149H329v305" id="aD"/><path fill="#d916a8" d="M20 0v-166h40c130 0 171-81 186-454l20-498h754V0H839v-952H437l-17 394C398-160 328 21 20 0" id="aE"/><path fill="#d916a8" d="M628 24c-324 0-524-230-524-574 0-343 198-582 503-582 237 0 487 146 487 559v75H286c9 234 145 362 343 362 132 0 231-58 273-172l174 48C1024-91 857 24 628 24zM287-650h624c-17-190-120-322-304-322-192 0-309 151-320 322" id="aF"/><path fill="#d916a8" d="M338-1118v477h534v-477h181V0H872v-475H338V0H158v-1118h180" id="aG"/><path fill="#d916a8" d="M1053 0H872v-806h-13L329 0H158v-1118h180v809h13l532-809h170V0" id="aH"/><g id="x"><use transform="matrix(0.006510416666666667,0,0,0.006510416666666667,0,0)" xlink:href="#az"/><use transform="matrix(0.006510416666666667,0,0,0.006510416666666667,7.493489583333334,0)" xlink:href="#aA"/><use transform="matrix(0.006510416666666667,0,0,0.006510416666666667,15.33203125,0)" xlink:href="#aB"/><use transform="matrix(0.006510416666666667,0,0,0.006510416666666667,23.626302083333336,0)" xlink:href="#aC"/><use transform="matrix(0.006510416666666667,0,0,0.006510416666666667,31.11328125,0)" xlink:href="#aD"/><use transform="matrix(0.006510416666666667,0,0,0.006510416666666667,38.645833333333336,0)" xlink:href="#aE"/><use transform="matrix(0.006510416666666667,0,0,0.006510416666666667,46.31510416666667,0)" xlink:href="#aF"/><use transform="matrix(0.006510416666666667,0,0,0.006510416666666667,54.08854166666667,0)" xlink:href="#aG"/><use transform="matrix(0.006510416666666667,0,0,0.006510416666666667,61.97265625,0)" xlink:href="#aH"/><use transform="matrix(0.006510416666666667,0,0,0.006510416666666667,69.85677083333334,0)" xlink:href="#aF"/></g><path fill="#d916a8" d="M613 24c-304 0-509-231-509-576 0-350 205-580 509-580 305 0 511 230 511 580 0 345-206 576-511 576zm0-161c226 0 329-195 329-415 0-222-103-419-329-419-223 0-326 196-326 419 0 220 103 415 326 415" id="aI"/><path fill="#d916a8" d="M993-1535l88 111c-103 99-256 94-455 101-229 8-342 151-365 447h14c74-139 216-204 371-204 263 0 463 187 463 537S910 24 609 24c-303 0-505-216-505-630v-116c0-497 169-758 515-768 139-7 304 19 374-45zM610-137c197 0 317-159 317-406 0-239-120-377-321-377-195 0-319 138-319 377 0 245 122 406 323 406" id="aJ"/><path fill="#d916a8" d="M388 0v-957H20v-161h914v161H568V0H388" id="aK"/><path fill="#d916a8" d="M158 0v-1118h180v484h112l398-484h228L630-577 1082 0H854L493-468H338V0H158" id="aL"/><path fill="#d916a8" d="M1053 0H872v-806h-13L329 0H158v-1118h180v809h13l532-809h170V0zM605-1275c-162 0-290-124-290-283h132c0 91 66 155 158 155s158-64 158-155h132c0 158-127 283-290 283" id="aM"/><g id="y"><use transform="matrix(0.006510416666666667,0,0,0.006510416666666667,0,0)" xlink:href="#aI"/><use transform="matrix(0.006510416666666667,0,0,0.006510416666666667,7.994791666666667,0)" xlink:href="#aJ"/><use transform="matrix(0.006510416666666667,0,0,0.006510416666666667,15.891927083333334,0)" xlink:href="#aF"/><use transform="matrix(0.006510416666666667,0,0,0.006510416666666667,23.665364583333336,0)" xlink:href="#aB"/><use transform="matrix(0.006510416666666667,0,0,0.006510416666666667,31.829427083333336,0)" xlink:href="#aK"/><use transform="matrix(0.006510416666666667,0,0,0.006510416666666667,38.24869791666667,0)" xlink:href="#aL"/><use transform="matrix(0.006510416666666667,0,0,0.006510416666666667,45.17578125000001,0)" xlink:href="#aI"/><use transform="matrix(0.006510416666666667,0,0,0.006510416666666667,53.17057291666667,0)" xlink:href="#aM"/></g><path fill="#d916a8" d="M370-1490V0H180v-1490h190" id="aN"/><path fill="#d916a8" d="M784 20c-382 0-662-292-662-764 0-473 280-766 662-766s660 293 660 766c0 472-278 764-660 764zm0-176c266 0 475-207 475-588 0-383-209-590-475-590-268 0-477 208-477 590 0 380 209 588 477 588" id="aO"/><g id="z"><use transform="matrix(0.006510416666666667,0,0,0.006510416666666667,0,0)" xlink:href="#aN"/><use transform="matrix(0.006510416666666667,0,0,0.006510416666666667,3.580729166666667,0)" xlink:href="#aO"/></g></defs></g></svg>